<svg viewBox="0 0 14 14" fill="none" xmlns="http://www.w3.org/2000/svg">
<circle cx="7" cy="7" r="7" fill="url(#paint0_linear_2001_2307)" style=""/>
<path d="M6.85996 10.4767C6.38707 10.4767 5.97329 10.3833 5.61863 10.1967C5.27018 10.01 4.95285 9.73622 4.66663 9.37534L5.38529 8.65667C5.56574 8.918 5.77729 9.12956 6.01996 9.29134C6.26263 9.45311 6.55507 9.534 6.89729 9.534C7.25818 9.534 7.5444 9.45622 7.75596 9.30067C7.97374 9.14511 8.08263 8.92422 8.08263 8.638C8.08263 8.42022 8.02663 8.24289 7.91463 8.106C7.80263 7.96911 7.65329 7.85711 7.46663 7.77C7.28618 7.67667 7.08396 7.59578 6.85996 7.52733C6.64218 7.45267 6.42129 7.37178 6.19729 7.28467C5.97951 7.19133 5.77729 7.07622 5.59063 6.93933C5.41018 6.80245 5.26396 6.62511 5.15196 6.40733C5.03996 6.18956 4.98396 5.91267 4.98396 5.57667C4.98396 5.19089 5.07729 4.86422 5.26396 4.59667C5.45685 4.32289 5.71507 4.11445 6.03863 3.97133C6.36218 3.82822 6.72307 3.75667 7.12129 3.75667C7.50707 3.75667 7.86485 3.84067 8.19463 4.00867C8.5244 4.17667 8.79507 4.39133 9.00663 4.65267L8.28796 5.37133C8.10129 5.15978 7.9084 4.99489 7.70929 4.87667C7.5164 4.75845 7.31107 4.69933 7.09329 4.69933C6.74485 4.69933 6.47729 4.76778 6.29063 4.90467C6.10396 5.03533 6.01063 5.23445 6.01063 5.502C6.01063 5.70111 6.06663 5.86289 6.17863 5.98733C6.29685 6.10556 6.44929 6.20822 6.63596 6.29533C6.82263 6.37622 7.02485 6.454 7.24263 6.52867C7.46663 6.60333 7.69063 6.68733 7.91463 6.78067C8.13863 6.874 8.34396 6.99533 8.53063 7.14467C8.71729 7.28778 8.86663 7.47445 8.97863 7.70467C9.09685 7.93489 9.15596 8.22422 9.15596 8.57267C9.15596 9.15756 8.94752 9.62111 8.53063 9.96334C8.11996 10.3056 7.56307 10.4767 6.85996 10.4767ZM6.71063 11.3167V2.91667H7.45729V11.3167H6.71063Z" fill="#F3F5FF" style="fill:#F3F5FF;fill:color(display-p3 0.9526 0.9605 1.0000);fill-opacity:1;"/>
<defs>
<linearGradient id="paint0_linear_2001_2307" x1="12.5417" y1="11.0833" x2="2.91667" y2="2.04167" gradientUnits="userSpaceOnUse">
<stop stop-color="#2B8BFF" style="stop-color:#2B8BFF;stop-color:color(display-p3 0.1686 0.5451 1.0000);stop-opacity:1;"/>
<stop offset="1" stop-color="#77C6FF" style="stop-color:#77C6FF;stop-color:color(display-p3 0.4667 0.7765 1.0000);stop-opacity:1;"/>
</linearGradient>
</defs>
</svg>
