<svg viewBox="0 0 17 19" fill="none" xmlns="http://www.w3.org/2000/svg">
<path d="M3.13973 7.54933L2.22867 7.4481L2.22867 7.4481L3.13973 7.54933ZM3.13382 7.60215L2.22313 7.49765L3.13382 7.60215ZM2.1228 10.5621L1.33676 10.0904L1.33676 10.0904L2.1228 10.5621ZM2.1501 10.5165L2.93783 10.9852L2.1501 10.5165ZM13.7803 7.54933L14.6914 7.4481L14.6914 7.4481L13.7803 7.54933ZM13.7862 7.60215L14.6969 7.49765L13.7862 7.60215ZM14.7973 10.5621L15.5833 10.0904L15.5833 10.0904L14.7973 10.5621ZM14.77 10.5165L13.9822 10.9852L14.77 10.5165ZM1.24067 13.5363L1.82904 12.8333L1.24067 13.5363ZM1.59293 11.4452L2.37897 11.9168L2.37897 11.9168L1.59293 11.4452ZM0.923574 12.9762L1.82904 12.8333L0.923574 12.9762ZM15.6794 13.5363L15.091 12.8333L15.6794 13.5363ZM15.3271 11.4452L14.5411 11.9168L14.5411 11.9168L15.3271 11.4452ZM15.9965 12.9762L15.091 12.8333L15.9965 12.9762ZM13.5495 5.47197L12.6384 5.5732L12.6384 5.5732L13.5495 5.47197ZM3.37055 5.47197L4.28161 5.5732L4.28161 5.5732L3.37055 5.47197ZM5.71003 13.75C5.71003 13.2437 5.29963 12.8333 4.79336 12.8333C4.2871 12.8333 3.8767 13.2437 3.8767 13.75L4.79336 13.75L5.71003 13.75ZM13.0434 13.75C13.0434 13.2437 12.633 12.8333 12.1267 12.8333C11.6204 12.8333 11.21 13.2437 11.21 13.75L12.1267 13.75L13.0434 13.75ZM14.0222 13.75V12.8333H2.89791V13.75V14.6667H14.0222V13.75ZM13.5495 5.47197L12.6384 5.5732L12.8693 7.65056L13.7803 7.54933L14.6914 7.4481L14.4606 5.37074L13.5495 5.47197ZM3.13973 7.54933L4.05079 7.65056L4.28161 5.5732L3.37055 5.47197L2.45949 5.37074L2.22867 7.4481L3.13973 7.54933ZM1.59293 11.4452L2.37897 11.9168L2.90883 11.0337L2.1228 10.5621L1.33676 10.0904L0.806897 10.9735L1.59293 11.4452ZM14.7973 10.5621L14.0112 11.0337L14.5411 11.9168L15.3271 11.4452L16.1132 10.9735L15.5833 10.0904L14.7973 10.5621ZM3.13973 7.54933L2.22867 7.4481C2.22566 7.47522 2.2244 7.48656 2.22313 7.49765L3.13382 7.60215L4.04451 7.70666C4.04624 7.69154 4.04792 7.67641 4.05079 7.65056L3.13973 7.54933ZM2.1228 10.5621L2.90883 11.0337C2.92222 11.0114 2.93005 10.9983 2.93783 10.9852L2.1501 10.5165L1.36238 10.0477C1.35667 10.0573 1.35079 10.0671 1.33676 10.0904L2.1228 10.5621ZM3.13382 7.60215L2.22313 7.49765C2.1197 8.39894 1.82633 9.26806 1.36238 10.0477L2.1501 10.5165L2.93783 10.9852C3.53434 9.9829 3.91153 8.86546 4.04451 7.70666L3.13382 7.60215ZM13.7803 7.54933L12.8693 7.65056C12.8721 7.67641 12.8738 7.69155 12.8756 7.70666L13.7862 7.60215L14.6969 7.49765C14.6957 7.48656 14.6944 7.47521 14.6914 7.4481L13.7803 7.54933ZM14.7973 10.5621L15.5833 10.0904C15.5693 10.0671 15.5634 10.0573 15.5577 10.0477L14.77 10.5165L13.9822 10.9852C13.99 10.9983 13.9978 11.0114 14.0112 11.0337L14.7973 10.5621ZM13.7862 7.60215L12.8756 7.70666C13.0085 8.86546 13.3857 9.9829 13.9822 10.9852L14.77 10.5165L15.5577 10.0477C15.0937 9.26806 14.8004 8.39894 14.6969 7.49765L13.7862 7.60215ZM2.89791 13.75V12.8333C2.41062 12.8333 2.11511 12.8322 1.90634 12.8112C1.69227 12.7897 1.74058 12.7593 1.82904 12.8333L1.24067 13.5363L0.652307 14.2392C0.99612 14.527 1.40576 14.6034 1.72282 14.6353C2.04519 14.6678 2.45062 14.6667 2.89791 14.6667V13.75ZM1.59293 11.4452L0.806898 10.9735C0.576769 11.3571 0.367225 11.7042 0.229179 11.9973C0.0934034 12.2856 -0.0517701 12.6762 0.018109 13.1191L0.923574 12.9762L1.82904 12.8333C1.84702 12.9473 1.7961 12.9731 1.88777 12.7784C1.97717 12.5886 2.12826 12.3346 2.37897 11.9168L1.59293 11.4452ZM1.24067 13.5363L1.82904 12.8333L1.82904 12.8333L0.923574 12.9762L0.018109 13.1191C0.0871789 13.5568 0.312475 13.9547 0.652307 14.2392L1.24067 13.5363ZM14.0222 13.75V14.6667C14.4694 14.6667 14.8749 14.6678 15.1972 14.6353C15.5143 14.6034 15.9239 14.527 16.2678 14.2392L15.6794 13.5363L15.091 12.8333C15.1795 12.7593 15.2278 12.7897 15.0137 12.8112C14.805 12.8322 14.5094 12.8333 14.0222 12.8333V13.75ZM15.3271 11.4452L14.5411 11.9168C14.7918 12.3346 14.9429 12.5886 15.0323 12.7784C15.124 12.9731 15.073 12.9473 15.091 12.8333L15.9965 12.9762L16.902 13.1191C16.9718 12.6762 16.8267 12.2856 16.6909 11.9973C16.5528 11.7042 16.3433 11.3571 16.1132 10.9735L15.3271 11.4452ZM15.6794 13.5363L16.2678 14.2392C16.6076 13.9547 16.8329 13.5568 16.902 13.1191L15.9965 12.9762L15.091 12.8333L15.091 12.8333L15.6794 13.5363ZM8.46003 0.916666V1.83333C10.6022 1.83333 12.4019 3.44409 12.6384 5.5732L13.5495 5.47197L14.4606 5.37074C14.1208 2.31317 11.5364 -6.55651e-07 8.46003 -6.55651e-07V0.916666ZM8.46003 0.916666V-6.55651e-07C5.38365 -6.55651e-07 2.79922 2.31317 2.45949 5.37074L3.37055 5.47197L4.28161 5.5732C4.51818 3.44409 6.31782 1.83333 8.46003 1.83333V0.916666ZM4.79336 13.75L3.8767 13.75C3.8767 14.3519 3.99525 14.9479 4.22558 15.504L5.07247 15.1532L5.91936 14.8024C5.78116 14.4687 5.71003 14.1111 5.71003 13.75L4.79336 13.75ZM5.07247 15.1532L4.22558 15.504C4.45592 16.06 4.79352 16.5653 5.21913 16.9909L5.86731 16.3427L6.51549 15.6945C6.26013 15.4392 6.05756 15.136 5.91936 14.8024L5.07247 15.1532ZM5.86731 16.3427L5.21913 16.9909C5.64473 17.4165 6.14999 17.7541 6.70607 17.9844L7.05686 17.1376L7.40765 16.2907C7.07401 16.1525 6.77085 15.9499 6.51549 15.6945L5.86731 16.3427ZM7.05686 17.1376L6.70607 17.9844C7.26214 18.2148 7.85814 18.3333 8.46003 18.3333L8.46003 17.4167L8.46003 16.5C8.0989 16.5 7.7413 16.4289 7.40765 16.2907L7.05686 17.1376ZM8.46003 17.4167L8.46003 18.3333C9.06192 18.3333 9.65792 18.2148 10.214 17.9844L9.8632 17.1376L9.51241 16.2907C9.17877 16.4289 8.82117 16.5 8.46003 16.5L8.46003 17.4167ZM9.8632 17.1376L10.214 17.9844C10.7701 17.7541 11.2753 17.4165 11.7009 16.9909L11.0528 16.3427L10.4046 15.6945C10.1492 15.9499 9.84606 16.1525 9.51241 16.2907L9.8632 17.1376ZM11.0528 16.3427L11.7009 16.9909C12.1265 16.5653 12.4641 16.06 12.6945 15.504L11.8476 15.1532L11.0007 14.8024C10.8625 15.136 10.6599 15.4392 10.4046 15.6945L11.0528 16.3427ZM11.8476 15.1532L12.6945 15.504C12.9248 14.9479 13.0434 14.3519 13.0434 13.75L12.1267 13.75L11.21 13.75C11.21 14.1111 11.1389 14.4687 11.0007 14.8024L11.8476 15.1532Z" fill="rgb(var(--color-main-text))" style="fill:rgb(var(--color-main-text));fill:color(display-p3 0.9526 0.9605 1.0000);fill-opacity:1;"/>
</svg>
