<svg viewBox="0 0 14 14" fill="none" xmlns="http://www.w3.org/2000/svg">
<path d="M11.564 4.29401L10.8768 4.94363L9.97316 3.93344C9.79222 3.71691 9.43085 3.6809 9.21384 3.89743L8.30968 4.65507L7.58695 2.85126C7.47869 2.59872 7.22558 2.41818 6.9359 2.41818C6.64671 2.41818 6.3936 2.56221 6.28485 2.85126L5.52554 4.69106L4.62138 3.89741C4.40486 3.68088 4.07958 3.68088 3.86256 3.93342L2.99498 4.9436L2.30783 4.29399C2.09082 4.07746 1.80162 4.04144 1.51243 4.18597C1.25932 4.33049 1.11448 4.61905 1.15105 4.90759L2.05472 10.7162C2.12689 11.2212 2.56093 11.5818 3.06714 11.5818H10.8052C11.3114 11.5818 11.7454 11.2212 11.8176 10.7162L12.7218 4.8716C12.7579 4.58305 12.6135 4.2945 12.3604 4.14998C12.0702 4.04146 11.781 4.07748 11.564 4.29401ZM9.57518 4.54656L10.3706 5.44872L9.14116 6.60342L8.59936 5.37671L9.57518 4.54656ZM4.29655 4.54656L5.27287 5.41223L4.76666 6.60294L3.50063 5.41272L4.29655 4.54656ZM4.65792 7.46915C4.83885 7.64968 5.12804 7.57717 5.2363 7.36113L6.9359 3.17581L8.63551 7.36113C8.74377 7.61368 9.03345 7.64969 9.21389 7.46915L11.962 4.87171L11.3109 9.20099H2.56095L1.9099 4.87171L4.65792 7.46915ZM10.8046 10.8602H3.06702C2.92218 10.8602 2.77783 10.7522 2.77783 10.6077L2.66956 9.92204H11.2391L11.0937 10.6077C11.0937 10.7522 10.9494 10.8602 10.8046 10.8602Z" fill="rgb(var(--color-orange))" style="fill:rgb(var(--color-orange));fill:color(display-p3 0.9976 0.7780 0.1738);fill-opacity:1;"/>
</svg>
