<svg viewBox="0 0 16 16" fill="none" xmlns="http://www.w3.org/2000/svg">
<path d="M7.33334 9.00931V13.4868C7.09557 13.3532 6.81738 13.1558 6.44955 12.8931L4.44955 11.4644C3.90229 11.0735 3.62856 10.8775 3.4808 10.5904C3.33319 10.3033 3.33334 9.96688 3.33334 9.29446V6.7056C3.33334 6.49217 3.33448 6.31263 3.3392 6.15775L7.33334 9.00931ZM12.6595 6.15775C12.6642 6.31264 12.6664 6.49215 12.6664 6.7056V9.29446C12.6664 9.96696 12.6666 10.3033 12.5189 10.5904C12.3711 10.8775 12.0975 11.0734 11.5501 11.4644L9.55014 12.8931C9.18222 13.1559 8.90417 13.3532 8.66635 13.4868V9.00931L12.6595 6.15775ZM8.00034 2.30521C8.42747 2.30536 8.8019 2.57251 9.55014 3.10696L11.5501 4.53568C11.7687 4.69177 11.9417 4.81913 12.0824 4.93118L7.99936 7.8472L3.91733 4.93021C4.05793 4.81825 4.23126 4.6916 4.44955 4.53568L6.44955 3.10696C7.19801 2.57235 7.57305 2.30521 8.00034 2.30521Z" fill="rgb(var(--color-green))" style="fill:rgb(var(--color-green));fill:color(display-p3 0.2095 0.8250 0.5033);fill-opacity:1;"/>
</svg>
