<svg viewBox="0 0 14 14" fill="none" xmlns="http://www.w3.org/2000/svg">
<path d="M12.6667 5.9752H5.88C5.73856 5.59134 5.48282 5.26008 5.14725 5.0261C4.81168 4.79212 4.41242 4.66667 4.00333 4.66667C3.59424 4.66667 3.19499 4.79212 2.85942 5.0261C2.52385 5.26008 2.2681 5.59134 2.12667 5.9752H0.666667C0.489856 5.9752 0.320287 6.04544 0.195262 6.17046C0.070238 6.29549 0 6.46506 0 6.64187C0 6.81868 0.070238 6.98825 0.195262 7.11327C0.320287 7.2383 0.489856 7.30854 0.666667 7.30854H2.12C2.26144 7.6924 2.51718 8.02366 2.85275 8.25764C3.18832 8.49162 3.58758 8.61707 3.99667 8.61707C4.40576 8.61707 4.80501 8.49162 5.14058 8.25764C5.47615 8.02366 5.7319 7.6924 5.87333 7.30854H12.6667C12.8435 7.30854 13.013 7.2383 13.1381 7.11327C13.2631 6.98825 13.3333 6.81868 13.3333 6.64187C13.3333 6.46506 13.2631 6.29549 13.1381 6.17046C13.013 6.04544 12.8435 5.9752 12.6667 5.9752ZM4 7.30854C3.86815 7.30854 3.73925 7.26944 3.62962 7.19618C3.51999 7.12293 3.43454 7.01881 3.38408 6.89699C3.33362 6.77517 3.32042 6.64113 3.34614 6.51181C3.37187 6.38249 3.43536 6.2637 3.5286 6.17046C3.62183 6.07723 3.74062 6.01374 3.86994 5.98801C3.99926 5.96229 4.1333 5.97549 4.25512 6.02595C4.37694 6.07641 4.48106 6.16186 4.55431 6.27149C4.62757 6.38112 4.66667 6.51002 4.66667 6.64187C4.66667 6.81868 4.59643 6.98825 4.4714 7.11327C4.34638 7.2383 4.17681 7.30854 4 7.30854ZM12.6667 10.6419H9.88C9.73856 10.258 9.48282 9.92675 9.14725 9.69276C8.81168 9.45878 8.41242 9.33333 8.00333 9.33333C7.59424 9.33333 7.19499 9.45878 6.85942 9.69276C6.52385 9.92675 6.2681 10.258 6.12667 10.6419H0.666667C0.489856 10.6419 0.320287 10.7121 0.195262 10.8371C0.070238 10.9622 0 11.1317 0 11.3085C0 11.4853 0.070238 11.6549 0.195262 11.7799C0.320287 11.905 0.489856 11.9752 0.666667 11.9752H6.12C6.26144 12.3591 6.51718 12.6903 6.85275 12.9243C7.18832 13.1583 7.58758 13.2837 7.99667 13.2837C8.40576 13.2837 8.80501 13.1583 9.14058 12.9243C9.47615 12.6903 9.7319 12.3591 9.87333 11.9752H12.6667C12.8435 11.9752 13.013 11.905 13.1381 11.7799C13.2631 11.6549 13.3333 11.4853 13.3333 11.3085C13.3333 11.1317 13.2631 10.9622 13.1381 10.8371C13.013 10.7121 12.8435 10.6419 12.6667 10.6419ZM8 11.9752C7.82319 11.9752 7.65362 11.905 7.52859 11.7799C7.40357 11.6549 7.33333 11.4853 7.33333 11.3085C7.33333 11.1767 7.37243 11.0478 7.44569 10.9382C7.51894 10.8285 7.62306 10.7431 7.74488 10.6926C7.8667 10.6422 8.00074 10.629 8.13006 10.6547C8.25938 10.6804 8.37817 10.7439 8.4714 10.8371C8.56464 10.9304 8.62813 11.0492 8.65386 11.1785C8.67958 11.3078 8.66638 11.4418 8.61592 11.5637C8.56546 11.6855 8.48001 11.7896 8.37038 11.8628C8.26075 11.9361 8.13185 11.9752 8 11.9752ZM0.666667 2.64187H8.12C8.26144 3.02573 8.51718 3.35699 8.85275 3.59097C9.18832 3.82496 9.58758 3.95041 9.99667 3.95041C10.4058 3.95041 10.805 3.82496 11.1406 3.59097C11.4761 3.35699 11.7319 3.02573 11.8733 2.64187H12.6667C12.8435 2.64187 13.013 2.57163 13.1381 2.44661C13.2631 2.32158 13.3333 2.15201 13.3333 1.9752C13.3333 1.79839 13.2631 1.62882 13.1381 1.5038C13.013 1.37877 12.8435 1.30854 12.6667 1.30854H11.88C11.7386 0.924673 11.4828 0.593414 11.1472 0.359432C10.8117 0.12545 10.4124 0 10.0033 0C9.59424 0 9.19499 0.12545 8.85942 0.359432C8.52385 0.593414 8.2681 0.924673 8.12667 1.30854H0.666667C0.489856 1.30854 0.320287 1.37877 0.195262 1.5038C0.070238 1.62882 0 1.79839 0 1.9752C0 2.15201 0.070238 2.32158 0.195262 2.44661C0.320287 2.57163 0.489856 2.64187 0.666667 2.64187ZM10 1.30854C10.1319 1.30854 10.2607 1.34764 10.3704 1.42089C10.48 1.49414 10.5655 1.59826 10.6159 1.72008C10.6664 1.8419 10.6796 1.97594 10.6539 2.10526C10.6281 2.23458 10.5646 2.35337 10.4714 2.44661C10.3782 2.53984 10.2594 2.60334 10.1301 2.62906C10.0007 2.65478 9.86669 2.64158 9.74488 2.59112C9.62306 2.54066 9.51894 2.45522 9.44569 2.34558C9.37243 2.23595 9.33333 2.10706 9.33333 1.9752C9.33333 1.79839 9.40357 1.62882 9.52859 1.5038C9.65362 1.37877 9.82319 1.30854 10 1.30854Z" fill="rgb(var(--color-main-text))" style="fill:rgb(var(--color-main-text));fill:color(display-p3 0.9526 0.9605 1.0000);fill-opacity:1;"/>
</svg>
