<svg viewBox="0 0 16 16" fill="none" xmlns="http://www.w3.org/2000/svg">
<path d="M6.49542 6.59145C7.84031 6.60906 9.00567 5.43804 9.01978 4.09312C9.07831 2.74993 7.99024 1.52265 6.64815 1.45559C5.10269 1.34991 3.8208 2.7056 3.96742 4.25385C4.08049 5.55271 5.16288 6.58912 6.48218 6.59188H6.49525L6.49542 6.59145ZM6.49542 2.30563C7.40111 2.29767 8.16931 3.09313 8.16524 4.00279C8.16638 5.86068 5.69542 6.40512 4.95098 4.70336C4.46917 3.62666 5.27712 2.29536 6.48218 2.30569L6.49542 2.30563Z" fill="rgb(var(--color-green))" style="fill:rgb(var(--color-green));fill:color(display-p3 0.2095 0.8250 0.5033);fill-opacity:1;"/>
<path d="M6.35114 13.163C5.74035 13.1648 3.00859 13.1619 2.74037 13.1625C2.73981 13.1613 2.74037 13.1517 2.74037 13.1329V11.9966C2.64662 9.86697 4.19783 7.98857 6.21936 7.86188C6.98469 7.80108 7.75172 7.99427 8.42794 8.34995C8.91032 8.49257 9.20407 7.81642 8.75408 7.56473C5.63989 5.85055 1.86709 8.17042 1.88469 11.8011C1.88583 12.1903 1.88356 12.8971 1.88469 13.3164C1.89038 13.5517 1.8739 13.5454 1.89378 13.6778C1.9489 13.9386 2.18583 14.0454 2.43924 14.0193C2.8773 14.0187 3.29776 14.0199 3.84776 14.0193C4.79492 14.0182 5.64893 14.0199 6.25067 14.0193C6.37113 14.0193 6.36715 14.025 6.46885 14.0022C6.92965 13.8664 6.84784 13.1801 6.35863 13.1642H6.35181L6.35114 13.163Z" fill="rgb(var(--color-green))" style="fill:rgb(var(--color-green));fill:color(display-p3 0.2095 0.8250 0.5033);fill-opacity:1;"/>
<path d="M14.0835 10.8307C13.9528 10.4603 13.6284 10.3926 13.2704 10.4176C12.8545 10.4171 12.0426 10.4182 12.042 10.4171C12.0261 10.3961 11.7 9.35117 11.5807 9.00855C11.3852 8.4631 10.5892 8.48924 10.4301 9.04719C10.3153 9.39605 9.99033 10.396 9.98238 10.4165C9.90397 10.4171 9.13123 10.4171 8.73465 10.4171C8.32159 10.3813 7.96761 10.5233 7.91135 10.9711C7.8784 11.2915 8.09942 11.4915 8.3534 11.6529C8.67329 11.8841 9.28408 12.325 9.34034 12.3659C9.34659 12.3705 9.34545 12.3682 9.34204 12.379C9.31875 12.45 9.29943 12.5097 9.26534 12.6142C9.13693 13.0068 8.90114 13.7284 8.89205 13.7569C8.87159 13.8222 8.85852 13.9057 8.86364 13.9745C8.87273 14.4245 9.42614 14.7086 9.79375 14.4535C9.8375 14.4256 10.4466 13.983 10.8028 13.7262C10.9278 13.6364 11.0114 13.5745 11.0131 13.575C11.0148 13.575 11.0983 13.6364 11.2233 13.7262L12.2011 14.4324C12.3869 14.5705 12.6568 14.5881 12.858 14.4694C13.108 14.329 13.2227 14.0245 13.1341 13.7569C13.1244 13.7279 12.8738 12.9597 12.7489 12.5779C12.7023 12.4165 12.6631 12.3699 12.6983 12.3574C12.8034 12.2813 13.3886 11.8586 13.6886 11.6421C13.9858 11.4608 14.1994 11.2046 14.0898 10.8427L14.0858 10.8302L14.0835 10.8307ZM12.0233 11.7887C11.7716 11.9693 11.725 12.3046 11.8477 12.579C11.9051 12.754 12.0119 13.0807 12.058 13.2222C12.0739 13.275 12.0858 13.2983 12.0761 13.2887C11.9102 13.1682 11.3949 12.7966 11.3659 12.7756C11.1659 12.6313 10.8932 12.6222 10.6852 12.7563C10.6301 12.7915 10.2778 13.05 10.0546 13.2103C9.90398 13.3131 9.93523 13.3319 9.98637 13.1563C10.0705 12.8955 10.2057 12.4909 10.2227 12.4284C10.2881 12.187 10.1938 11.9284 9.99206 11.783C9.96137 11.7608 9.45001 11.3921 9.28694 11.2728C9.49091 11.2716 10.125 11.2728 10.1625 11.2722C10.4097 11.2722 10.6364 11.1188 10.7261 10.8875C10.75 10.8267 10.8818 10.4114 10.9682 10.1512C11.029 9.98242 10.9932 9.98129 11.054 10.1512C11.2716 10.7125 11.2381 11.2035 11.825 11.2711C11.8886 11.275 12.5034 11.2711 12.7341 11.2728C12.6892 11.3063 12.1472 11.6995 12.0284 11.7841L12.0227 11.7887L12.0233 11.7887Z" fill="rgb(var(--color-green))" style="fill:rgb(var(--color-green));fill:color(display-p3 0.2095 0.8250 0.5033);fill-opacity:1;"/>
</svg>
