<svg viewBox="0 0 16 16" fill="none" xmlns="http://www.w3.org/2000/svg">
<rect x="0.5" y="0.5" width="15" height="15" rx="7.5" fill="#1E2026" style="fill:#1E2026;fill:color(display-p3 0.1176 0.1255 0.1490);fill-opacity:1;"/>
<rect x="0.5" y="0.5" width="15" height="15" rx="7.5" stroke="#FEC62C" style="stroke:#FEC62C;stroke:color(display-p3 0.9976 0.7780 0.1738);stroke-opacity:1;"/>
<g clip-path="url(#clip0_1_538)">
<path d="M7.69741 4.13595C7.76001 4.09657 7.73355 4.00522 7.65776 4.00522C5.08534 4.00522 2.99998 5.92784 2.99998 8.29952C2.99998 11.6268 6.40354 13.099 9.41921 12.2761C9.68255 12.1769 9.81422 12.1272 9.80681 12.051C9.79939 11.9748 9.6487 11.9453 9.34732 11.8864C7.24151 11.4742 5.66163 9.75004 5.66163 7.68572C5.66163 6.21053 6.46843 4.90907 7.69741 4.13595Z" fill="#FEC62C" style="fill:#FEC62C;fill:color(display-p3 0.9976 0.7780 0.1738);fill-opacity:1;"/>
<path d="M12.705 5.80308L13.9478 6.23351C14.2069 6.32326 14.3365 6.36813 14.3365 6.4495C14.3365 6.53086 14.2069 6.57574 13.9478 6.66548L12.705 7.09592C12.652 7.11426 12.6256 7.12344 12.6067 7.14272C12.5879 7.16201 12.5793 7.1887 12.5622 7.24208L12.1566 8.50628C12.0671 8.78534 12.0223 8.92487 11.939 8.92487C11.8556 8.92487 11.8108 8.78534 11.7213 8.50628L11.3158 7.24208C11.2986 7.1887 11.2901 7.16201 11.2712 7.14272C11.2524 7.12344 11.2259 7.11426 11.1729 7.09592L9.93015 6.66548C9.67103 6.57574 9.54147 6.53086 9.54147 6.4495C9.54147 6.36813 9.67103 6.32326 9.93015 6.23351L11.1729 5.80308C11.2259 5.78473 11.2524 5.77556 11.2712 5.75627C11.2901 5.73699 11.2986 5.7103 11.3158 5.65692L11.7213 4.39272C11.8108 4.11365 11.8556 3.97412 11.939 3.97412C12.0223 3.97412 12.0671 4.11365 12.1566 4.39272L12.5622 5.65692C12.5793 5.7103 12.5879 5.73699 12.6067 5.75627C12.6256 5.77556 12.652 5.78473 12.705 5.80308Z" fill="#FEC62C" style="fill:#FEC62C;fill:color(display-p3 0.9976 0.7780 0.1738);fill-opacity:1;"/>
</g>
<defs>
<clipPath id="clip0_1_538">
<rect width="12" height="12" fill="white" style="fill:white;fill-opacity:1;" transform="translate(2 2)"/>
</clipPath>
</defs>
</svg>
