<svg viewBox="0 0 16 16" fill="none" xmlns="http://www.w3.org/2000/svg">
<path d="M7.47493 2.16666C7.8102 2.02299 8.18944 2.02307 8.52473 2.16666L12.4681 3.85611C13.0141 4.09012 13.3394 4.65728 13.2659 5.24673L12.8577 8.51627C12.711 9.69041 12.1232 10.7656 11.2142 11.5231L8.85384 13.4899C8.35947 13.9019 7.64126 13.9017 7.1468 13.4899L4.78548 11.5231C3.87646 10.7656 3.28967 9.69041 3.1429 8.51627L2.73372 5.24673C2.66026 4.65735 2.98567 4.09016 3.53157 3.85611L7.47493 2.16666Z" stroke="rgb(var(--color-green))" style="stroke:rgb(var(--color-green));stroke:color(display-p3 0.2095 0.8250 0.5033);stroke-opacity:1;" stroke-width="1.33333" stroke-linecap="round"/>
<path d="M6.00001 8L7.7125 9.71249C7.86123 9.86123 8.10887 9.83671 8.22555 9.66169L10.6667 6" stroke="rgb(var(--color-green))" style="stroke:rgb(var(--color-green));stroke:color(display-p3 0.2095 0.8250 0.5033);stroke-opacity:1;" stroke-width="1.33333" stroke-linecap="round"/>
</svg>
