<svg viewBox="0 0 18 18" fill="none" xmlns="http://www.w3.org/2000/svg">
  <path
    d="M10.6999 1.81068H11.3874V1.77639L11.384 1.74227L10.6999 1.81068ZM10.5742 1.13434L11.1852 0.819211L11.1852 0.81921L10.5742 1.13434ZM10.6999 1.81069H10.0124V1.84498L10.0158 1.8791L10.6999 1.81069ZM10.9431 3.01222L10.3965 3.42918L10.3965 3.42918L10.9431 3.01222ZM11.7091 3.32949L11.6174 2.64813L11.6174 2.64813L11.7091 3.32949ZM12.7307 2.65192L12.2954 2.11982L12.2954 2.11982L12.7307 2.65192ZM13.2978 2.26259L13.0886 1.6077L13.0886 1.6077L13.2978 2.26259ZM13.877 2.29147L14.1503 1.66065L14.1503 1.66065L13.877 2.29147ZM14.4025 2.7353L13.9164 3.22144L13.9164 3.22144L14.4025 2.7353ZM15.1396 3.47243L15.6258 2.98629L15.6258 2.98629L15.1396 3.47243ZM15.5835 3.99802L16.2143 3.72468L16.2143 3.72468L15.5835 3.99802ZM15.6124 4.57708L16.2673 4.7863L16.2673 4.78629L15.6124 4.57708ZM15.223 5.14424L14.6909 4.70888L14.6909 4.70888L15.223 5.14424ZM14.5454 6.16596L15.2267 6.25761L15.2267 6.25761L14.5454 6.16596ZM14.8626 6.93186L14.4456 7.47847L14.4456 7.47847L14.8626 6.93186ZM16.0643 7.17518L16.1327 6.49109L16.1327 6.49109L16.0643 7.17518ZM16.7407 7.3009L16.4255 7.91191L16.4255 7.91191L16.7407 7.3009ZM17.1297 7.73076L16.4904 7.98356L16.4904 7.98356L17.1297 7.73076ZM17.1297 10.1442L16.4904 9.89143L16.4904 9.89143L17.1297 10.1442ZM16.7406 10.5741L16.4255 9.96309L16.4255 9.9631L16.7406 10.5741ZM16.0643 10.6998L15.9959 10.0157L15.9959 10.0157L16.0643 10.6998ZM14.8631 10.943L15.2799 11.4897L15.2799 11.4897L14.8631 10.943ZM14.5457 11.7092L15.227 11.6174L15.227 11.6174L14.5457 11.7092ZM15.2231 12.7305L14.691 13.1659L14.7127 13.1924L14.737 13.2166L15.2231 12.7305ZM15.2231 12.7305L15.7552 12.2952L15.7335 12.2686L15.7093 12.2444L15.2231 12.7305ZM15.6124 13.2974L14.9575 13.5067L14.9575 13.5068L15.6124 13.2974ZM15.5835 13.8767L14.9527 13.6033L14.9527 13.6033L15.5835 13.8767ZM13.877 15.5832L14.1503 16.214L14.1503 16.214L13.877 15.5832ZM13.2978 15.6121L13.5071 14.9572L13.5071 14.9572L13.2978 15.6121ZM12.7308 15.2227L12.2446 15.7089L12.2689 15.7331L12.2954 15.7548L12.7308 15.2227ZM12.7308 15.2227L13.2169 14.7366L13.1927 14.7123L13.1661 14.6906L12.7308 15.2227ZM11.7092 14.5452L11.6175 15.2265L11.6175 15.2265L11.7092 14.5452ZM10.9432 14.8624L10.3965 14.4455L10.3965 14.4455L10.9432 14.8624ZM10.6999 16.0641L11.384 16.1325L11.384 16.1325L10.6999 16.0641ZM10.5741 16.7407L9.96313 16.4255L9.96313 16.4255L10.5741 16.7407ZM10.1443 17.1297L9.8915 16.4904L9.8915 16.4904L10.1443 17.1297ZM7.7308 17.1297L7.478 17.769L7.478 17.769L7.7308 17.1297ZM7.30095 16.7407L6.68994 17.0559L6.68994 17.0559L7.30095 16.7407ZM7.17522 16.0643L7.85931 15.9959L7.85707 15.9735L7.85337 15.9513L7.17522 16.0643ZM7.17522 16.0643L6.49114 16.1327L6.49338 16.1551L6.49708 16.1773L7.17522 16.0643ZM6.93188 14.8626L6.3853 15.2796L6.3853 15.2796L6.93188 14.8626ZM6.16603 14.5454L6.25765 15.2267L6.25766 15.2267L6.16603 14.5454ZM5.14422 15.223L5.57957 15.7551L5.57957 15.7551L5.14422 15.223ZM4.57699 15.6124L4.78617 16.2674L4.78617 16.2674L4.57699 15.6124ZM3.99799 15.5836L4.27131 14.9527L4.2713 14.9527L3.99799 15.5836ZM3.47234 15.1397L3.95847 14.6535L3.95847 14.6535L3.47234 15.1397ZM2.73527 14.4026L2.24913 14.8887L2.24913 14.8887L2.73527 14.4026ZM2.29139 13.877L2.92222 13.6037L2.92222 13.6037L2.29139 13.877ZM2.26251 13.2979L1.60762 13.0887L1.60762 13.0887L2.26251 13.2979ZM2.65189 12.7308L2.1198 12.2954L2.1198 12.2954L2.65189 12.7308ZM3.32952 11.709L4.01088 11.8007L4.01088 11.8007L3.32952 11.709ZM3.01226 10.9431L3.42924 10.3965L3.42924 10.3965L3.01226 10.9431ZM1.81067 10.6998L1.74227 11.3839L1.74227 11.3839L1.81067 10.6998ZM1.13433 10.5741L0.819196 11.1851L0.819198 11.1851L1.13433 10.5741ZM0.745287 10.1442L1.38463 9.89144L1.38463 9.89144L0.745287 10.1442ZM0.745315 7.73071L1.38464 7.98355L1.38464 7.98355L0.745315 7.73071ZM1.13427 7.30093L0.819073 6.68994L0.819072 6.68994L1.13427 7.30093ZM1.81076 7.17517V6.48767H1.77647L1.74235 6.49109L1.81076 7.17517ZM1.81077 7.17517V7.86267H1.84506L1.87918 7.85926L1.81077 7.17517ZM3.01264 6.93178L3.42969 7.47834L3.42969 7.47834L3.01264 6.93178ZM3.32982 6.16604L4.0112 6.07447L4.0112 6.07447L3.32982 6.16604ZM2.65202 5.14401L2.11291 5.5708L2.11992 5.57936L2.65202 5.14401ZM2.65201 5.14401L3.19112 4.71722L3.18411 4.70866L2.65201 5.14401ZM2.26249 4.5766L1.60757 4.78571L1.60757 4.78571L2.26249 4.5766ZM2.29136 3.99776L1.6605 3.72451L1.6605 3.72451L2.29136 3.99776ZM2.73538 3.47195L3.22152 3.95809L3.22152 3.95809L2.73538 3.47195ZM3.47235 2.73499L2.98621 2.24885L2.98621 2.24885L3.47235 2.73499ZM3.47235 2.73498L2.98621 2.24885L2.98621 2.24885L3.47235 2.73498ZM3.99801 2.29107L4.27132 2.92191L4.27132 2.92191L3.99801 2.29107ZM4.577 2.26219L4.36782 2.91709L4.36782 2.91709L4.577 2.26219ZM5.1443 2.65166L5.57965 2.11956L5.57965 2.11956L5.1443 2.65166ZM6.16593 3.32928L6.07419 4.01063L6.07419 4.01063L6.16593 3.32928ZM6.932 3.01196L6.38535 2.59504L6.38535 2.59504L6.932 3.01196ZM7.17523 1.8106L7.85932 1.87901L7.86273 1.84489V1.8106H7.17523ZM7.17523 1.8106L6.49115 1.74219L6.48773 1.77631V1.8106H7.17523ZM7.30091 1.13439L7.91195 1.44948L7.91195 1.44948L7.30091 1.13439ZM7.73089 0.745266L7.98361 1.38463L7.98361 1.38463L7.73089 0.745266ZM10.1443 0.745287L9.89148 1.38463L9.89148 1.38463L10.1443 0.745287ZM10.6999 1.81068L11.384 1.74227C11.367 1.57247 11.3512 1.41167 11.3286 1.27689C11.3049 1.13535 11.267 0.977852 11.1852 0.819211L10.5742 1.13434L9.96313 1.44947C9.95336 1.43052 9.96046 1.4323 9.9726 1.50457C9.98587 1.5836 9.99698 1.69112 10.0158 1.87909L10.6999 1.81068ZM10.6999 1.81069H11.3874V1.81068H10.6999H10.0124V1.81069H10.6999ZM10.9431 3.01222L11.4898 2.59526C11.5214 2.63678 11.5003 2.64015 11.4704 2.47397C11.4417 2.31435 11.419 2.0924 11.384 1.74228L10.6999 1.81069L10.0158 1.8791C10.0485 2.20614 10.0766 2.49207 10.1171 2.71749C10.1565 2.93633 10.2231 3.20188 10.3965 3.42918L10.9431 3.01222ZM11.7091 3.32949L11.6174 2.64813C11.5685 2.65472 11.5197 2.63454 11.4898 2.59525L10.9431 3.01222L10.3965 3.42918C10.7261 3.86128 11.2622 4.08333 11.8008 4.01085L11.7091 3.32949ZM12.7307 2.65192L12.2954 2.11982C12.0231 2.34264 11.8501 2.48352 11.7169 2.57608C11.5782 2.67244 11.5657 2.6551 11.6174 2.64813L11.7091 3.32949L11.8008 4.01085C12.0841 3.97273 12.319 3.83207 12.5016 3.70517C12.6897 3.57446 12.9117 3.39214 13.1661 3.18401L12.7307 2.65192ZM13.2978 2.26259L13.0886 1.6077C12.9186 1.66202 12.7805 1.74662 12.6636 1.82989C12.5523 1.90919 12.4275 2.01177 12.2954 2.11982L12.7307 2.65192L13.1661 3.18401C13.3123 3.0644 13.3962 2.99623 13.4614 2.94973C13.5211 2.90722 13.5274 2.91098 13.5071 2.91747L13.2978 2.26259ZM13.877 2.29147L14.1503 1.66065C13.8145 1.51512 13.4373 1.4963 13.0886 1.6077L13.2978 2.26259L13.5071 2.91747C13.5388 2.90735 13.5731 2.90906 13.6036 2.92229L13.877 2.29147ZM14.4025 2.7353L14.8886 2.24916C14.768 2.12851 14.654 2.01401 14.5511 1.92403C14.4431 1.82954 14.3141 1.73162 14.1503 1.66065L13.877 2.29147L13.6036 2.92229C13.584 2.9138 13.5907 2.91069 13.6458 2.95893C13.7061 3.01169 13.7828 3.08786 13.9164 3.22144L14.4025 2.7353ZM15.1396 3.47243L15.6258 2.98629L14.8886 2.24916L14.4025 2.7353L13.9164 3.22144L14.6535 3.95857L15.1396 3.47243ZM15.5835 3.99802L16.2143 3.72468C16.1433 3.56089 16.0454 3.43185 15.9509 3.32383C15.8609 3.22096 15.7464 3.10696 15.6258 2.98629L15.1396 3.47243L14.6535 3.95856C14.7871 4.09215 14.8633 4.16883 14.916 4.22915C14.9643 4.2843 14.9611 4.29093 14.9527 4.27136L15.5835 3.99802ZM15.6124 4.57708L16.2673 4.78629C16.3786 4.43767 16.3598 4.0605 16.2143 3.72468L15.5835 3.99802L14.9527 4.27136C14.9659 4.30189 14.9676 4.33618 14.9575 4.36787L15.6124 4.57708ZM15.223 5.14424L15.7551 5.57959C15.8632 5.44751 15.9658 5.32268 16.0451 5.21137C16.1283 5.09448 16.2129 4.95634 16.2673 4.7863L15.6124 4.57708L14.9575 4.36787C14.964 4.34755 14.9677 4.35384 14.9252 4.41352C14.8787 4.47879 14.8105 4.56267 14.6909 4.70888L15.223 5.14424ZM14.5454 6.16596L15.2267 6.25761C15.2198 6.30937 15.2024 6.2968 15.2988 6.15814C15.3914 6.02495 15.5323 5.85194 15.7551 5.57959L15.223 5.14424L14.6909 4.70888C14.4828 4.96329 14.3004 5.18534 14.1697 5.37343C14.0428 5.55604 13.9021 5.79095 13.864 6.07431L14.5454 6.16596ZM14.8626 6.93186L15.2796 6.38526C15.2403 6.3553 15.2202 6.30657 15.2267 6.25761L14.5454 6.16596L13.864 6.07431C13.7916 6.61286 14.0136 7.14888 14.4456 7.47847L14.8626 6.93186ZM16.0643 7.17518L16.1327 6.49109C15.7825 6.45608 15.5606 6.43337 15.4009 6.40464C15.2347 6.37473 15.2381 6.35358 15.2796 6.38526L14.8626 6.93186L14.4456 7.47847C14.673 7.65188 14.9385 7.71852 15.1574 7.7579C15.3828 7.79847 15.6688 7.82656 15.9959 7.85927L16.0643 7.17518ZM16.7407 7.3009L17.0558 6.68989C16.8972 6.60806 16.7397 6.5702 16.5981 6.54643C16.4633 6.5238 16.3025 6.50807 16.1327 6.49109L16.0643 7.17518L15.9959 7.85927C16.1839 7.87807 16.2914 7.88918 16.3704 7.90245C16.4427 7.91458 16.4445 7.92169 16.4255 7.91191L16.7407 7.3009ZM17.1297 7.73076L17.769 7.47797C17.6345 7.13765 17.3811 6.85765 17.0558 6.68989L16.7407 7.3009L16.4255 7.91191C16.4551 7.92716 16.4781 7.95262 16.4904 7.98356L17.1297 7.73076ZM17.1875 8.41631H17.875C17.875 8.24565 17.8754 8.08406 17.8662 7.94769C17.8567 7.80447 17.8347 7.64398 17.769 7.47797L17.1297 7.73076L16.4904 7.98356C16.4825 7.96372 16.4894 7.9662 16.4943 8.03932C16.4996 8.11928 16.5 8.22739 16.5 8.41631H17.1875ZM17.1875 9.45879H17.875V8.41631H17.1875H16.5V9.45879H17.1875ZM17.1297 10.1442L17.7691 10.3969C17.8347 10.2309 17.8567 10.0705 17.8663 9.92729C17.8754 9.79095 17.875 9.62941 17.875 9.45879H17.1875H16.5C16.5 9.64767 16.4996 9.75574 16.4943 9.83568C16.4894 9.90878 16.4825 9.91127 16.4904 9.89143L17.1297 10.1442ZM16.7406 10.5741L17.0557 11.1852C17.3811 11.0174 17.6345 10.7373 17.7691 10.3969L17.1297 10.1442L16.4904 9.89143C16.4781 9.92238 16.4551 9.94784 16.4255 9.96309L16.7406 10.5741ZM16.0643 10.6998L16.1328 11.3839C16.3025 11.3669 16.4633 11.3512 16.5981 11.3286C16.7396 11.3048 16.8971 11.267 17.0557 11.1852L16.7406 10.5741L16.4255 9.9631C16.4445 9.95332 16.4427 9.96043 16.3704 9.97256C16.2914 9.98582 16.1839 9.99693 15.9959 10.0157L16.0643 10.6998ZM14.8631 10.943L15.2799 11.4897C15.2384 11.5214 15.235 11.5002 15.4012 11.4703C15.5608 11.4416 15.7827 11.4189 16.1328 11.3839L16.0643 10.6998L15.9959 10.0157C15.669 10.0484 15.3831 10.0765 15.1577 10.1171C14.9389 10.1564 14.6734 10.223 14.4462 10.3963L14.8631 10.943ZM14.5457 11.7092L15.227 11.6174C15.2204 11.5684 15.2406 11.5197 15.2799 11.4897L14.8631 10.943L14.4462 10.3963C14.0139 10.726 13.7918 11.2622 13.8644 11.801L14.5457 11.7092ZM15.2231 12.7305L15.7552 12.2952C15.5325 12.0229 15.3916 11.85 15.2991 11.7168C15.2027 11.5782 15.2201 11.5656 15.227 11.6174L14.5457 11.7092L13.8644 11.801C13.9025 12.0842 14.0431 12.319 14.17 12.5016C14.3007 12.6896 14.4829 12.9116 14.691 13.1659L15.2231 12.7305ZM15.2231 12.7305L15.7093 12.2444L15.7093 12.2444L15.2231 12.7305L14.737 13.2166L14.737 13.2167L15.2231 12.7305ZM15.6124 13.2974L16.2672 13.0881C16.2129 12.9182 16.1283 12.7801 16.0451 12.6632C15.9658 12.552 15.8632 12.4272 15.7552 12.2952L15.2231 12.7305L14.691 13.1659C14.8106 13.312 14.8788 13.3959 14.9252 13.4611C14.9677 13.5208 14.964 13.5271 14.9575 13.5067L15.6124 13.2974ZM15.5835 13.8767L16.2143 14.1501C16.3599 13.8142 16.3787 13.4369 16.2672 13.0881L15.6124 13.2974L14.9575 13.5068C14.9676 13.5385 14.9659 13.5728 14.9527 13.6033L15.5835 13.8767ZM15.1397 14.4021L15.6259 14.8882C15.7465 14.7676 15.861 14.6537 15.9509 14.5508C16.0454 14.4429 16.1433 14.3139 16.2143 14.1501L15.5835 13.8767L14.9527 13.6033C14.9612 13.5837 14.9643 13.5904 14.916 13.6455C14.8633 13.7058 14.7871 13.7824 14.6536 13.916L15.1397 14.4021ZM14.4025 15.1393L14.8886 15.6255L15.6259 14.8882L15.1397 14.4021L14.6536 13.916L13.9164 14.6532L14.4025 15.1393ZM13.877 15.5832L14.1503 16.214C14.3141 16.143 14.4431 16.0451 14.5511 15.9506C14.654 15.8606 14.768 15.7461 14.8886 15.6255L14.4025 15.1393L13.9164 14.6532C13.7828 14.7868 13.7061 14.863 13.6458 14.9157C13.5907 14.964 13.584 14.9608 13.6036 14.9524L13.877 15.5832ZM13.2978 15.6121L13.0886 16.2669C13.4373 16.3783 13.8145 16.3595 14.1503 16.214L13.877 15.5832L13.6036 14.9524C13.5731 14.9656 13.5388 14.9673 13.5071 14.9572L13.2978 15.6121ZM12.7308 15.2227L12.2954 15.7548C12.4275 15.8629 12.5523 15.9655 12.6636 16.0448C12.7805 16.128 12.9186 16.2126 13.0886 16.2669L13.2978 15.6121L13.5071 14.9572C13.5274 14.9637 13.5211 14.9674 13.4614 14.9249C13.3962 14.8784 13.3123 14.8102 13.1661 14.6906L12.7308 15.2227ZM12.7308 15.2227L12.2446 15.7089L12.2446 15.7089L12.7308 15.2227L13.2169 14.7366L13.2169 14.7366L12.7308 15.2227ZM11.7092 14.5452L11.6175 15.2265C11.5657 15.2196 11.5783 15.2022 11.7169 15.2986C11.8501 15.3911 12.0231 15.532 12.2954 15.7548L12.7308 15.2227L13.1661 14.6906C12.9117 14.4825 12.6897 14.3002 12.5016 14.1695C12.3191 14.0426 12.0842 13.9019 11.8009 13.8638L11.7092 14.5452ZM10.9432 14.8624L11.4898 15.2794C11.5198 15.2401 11.5685 15.2199 11.6175 15.2265L11.7092 14.5452L11.8009 13.8638C11.2622 13.7913 10.7261 14.0134 10.3965 14.4455L10.9432 14.8624ZM10.6999 16.0641L11.384 16.1325C11.419 15.7824 11.4417 15.5604 11.4704 15.4007C11.5003 15.2345 11.5215 15.2379 11.4898 15.2794L10.9432 14.8624L10.3965 14.4455C10.2232 14.6728 10.1565 14.9384 10.1172 15.1572C10.0766 15.3827 10.0485 15.6686 10.0158 15.9957L10.6999 16.0641ZM10.5741 16.7407L11.1851 17.0559C11.267 16.8973 11.3048 16.7397 11.3286 16.5981C11.3513 16.4633 11.367 16.3024 11.384 16.1325L10.6999 16.0641L10.0158 15.9957C9.99699 16.1838 9.98587 16.2914 9.9726 16.3704C9.96046 16.4427 9.95334 16.4445 9.96313 16.4255L10.5741 16.7407ZM10.1443 17.1297L10.3972 17.769C10.7374 17.6344 11.0174 17.3811 11.1851 17.0559L10.5741 16.7407L9.96313 16.4255C9.94788 16.4551 9.92243 16.4781 9.8915 16.4904L10.1443 17.1297ZM9.45866 17.1875V17.875C9.62935 17.875 9.79097 17.8754 9.92737 17.8662C10.0706 17.8567 10.2311 17.8347 10.3972 17.769L10.1443 17.1297L9.8915 16.4904C9.91134 16.4825 9.90885 16.4894 9.83572 16.4943C9.75575 16.4996 9.64762 16.5 9.45866 16.5V17.1875ZM8.41636 17.1875V17.875H9.45866V17.1875V16.5H8.41636V17.1875ZM7.7308 17.1297L7.478 17.769C7.64401 17.8347 7.80451 17.8567 7.94773 17.8662C8.08411 17.8754 8.2457 17.875 8.41636 17.875V17.1875V16.5C8.22743 16.5 8.11933 16.4996 8.03937 16.4943C7.96625 16.4894 7.96376 16.4825 7.9836 16.4904L7.7308 17.1297ZM7.30095 16.7407L6.68994 17.0559C6.8577 17.3811 7.13769 17.6345 7.478 17.769L7.7308 17.1297L7.9836 16.4904C7.95266 16.4781 7.92721 16.4551 7.91196 16.4255L7.30095 16.7407ZM7.17522 16.0643L6.49114 16.1327C6.50812 16.3025 6.52384 16.4633 6.54648 16.5981C6.57025 16.7397 6.60811 16.8972 6.68994 17.0559L7.30095 16.7407L7.91196 16.4255C7.92174 16.4445 7.91463 16.4427 7.90249 16.3704C7.88922 16.2914 7.87811 16.1839 7.85931 15.9959L7.17522 16.0643ZM7.17522 16.0643L6.49708 16.1773L6.49708 16.1773L7.17522 16.0643L7.85337 15.9513L7.85337 15.9513L7.17522 16.0643ZM6.93188 14.8626L6.3853 15.2796C6.35361 15.2381 6.37477 15.2347 6.40468 15.4009C6.43341 15.5605 6.45612 15.7825 6.49114 16.1327L7.17522 16.0643L7.85931 15.9959C7.8266 15.6688 7.79851 15.3828 7.75794 15.1574C7.71855 14.9385 7.6519 14.6729 7.47847 14.4456L6.93188 14.8626ZM6.16603 14.5454L6.25766 15.2267C6.30661 15.2201 6.35533 15.2403 6.3853 15.2796L6.93188 14.8626L7.47847 14.4456C7.14889 14.0136 6.61292 13.7916 6.07441 13.864L6.16603 14.5454ZM5.14422 15.223L5.57957 15.7551C5.85195 15.5323 6.02497 15.3914 6.15817 15.2988C6.29685 15.2024 6.30943 15.2198 6.25765 15.2267L6.16603 14.5454L6.07441 13.864C5.79103 13.9021 5.5561 14.0428 5.37348 14.1697C5.18537 14.3004 4.96329 14.4828 4.70886 14.6909L5.14422 15.223ZM4.57699 15.6124L4.78617 16.2674C4.95624 16.213 5.0944 16.1284 5.2113 16.0451C5.32263 15.9658 5.44747 15.8632 5.57957 15.7551L5.14422 15.223L4.70886 14.6909C4.56263 14.8106 4.47873 14.8788 4.41346 14.9253C4.35377 14.9678 4.34748 14.964 4.3678 14.9575L4.57699 15.6124ZM3.99799 15.5836L3.72468 16.2144C4.06046 16.3599 4.43759 16.3787 4.78617 16.2674L4.57699 15.6124L4.36781 14.9575C4.33611 14.9677 4.30183 14.966 4.27131 14.9527L3.99799 15.5836ZM3.47234 15.1397L2.9862 15.6258C3.10688 15.7465 3.2209 15.861 3.32377 15.951C3.43181 16.0455 3.56087 16.1434 3.72468 16.2144L3.99799 15.5836L4.2713 14.9527C4.29088 14.9612 4.28425 14.9643 4.22909 14.9161C4.16877 14.8633 4.09207 14.7871 3.95847 14.6535L3.47234 15.1397ZM2.73527 14.4026L2.24913 14.8887L2.9862 15.6258L3.47234 15.1397L3.95847 14.6535L3.2214 13.9165L2.73527 14.4026ZM2.29139 13.877L1.66056 14.1503C1.73154 14.3141 1.82946 14.4432 1.92397 14.5512C2.01395 14.6541 2.12846 14.7681 2.24913 14.8887L2.73527 14.4026L3.2214 13.9165C3.08782 13.7829 3.01163 13.7062 2.95887 13.6459C2.91062 13.5907 2.91374 13.5841 2.92222 13.6037L2.29139 13.877ZM2.26251 13.2979L1.60762 13.0887C1.49625 13.4373 1.51506 13.8145 1.66056 14.1503L2.29139 13.877L2.92222 13.6037C2.90899 13.5731 2.90728 13.5388 2.91741 13.5071L2.26251 13.2979ZM2.65189 12.7308L2.1198 12.2954C2.01173 12.4275 1.90913 12.5523 1.82983 12.6636C1.74654 12.7805 1.66194 12.9187 1.60762 13.0887L2.26251 13.2979L2.91741 13.5071C2.91092 13.5275 2.90715 13.5212 2.94968 13.4615C2.99618 13.3962 3.06436 13.3123 3.18399 13.1661L2.65189 12.7308ZM3.32952 11.709L2.64816 11.6174C2.65512 11.5656 2.67246 11.5782 2.57609 11.7169C2.48353 11.85 2.34263 12.0231 2.1198 12.2954L2.65189 12.7308L3.18399 13.1661C3.39214 12.9117 3.57447 12.6897 3.70519 12.5016C3.8321 12.319 3.97276 12.0841 4.01088 11.8007L3.32952 11.709ZM3.01226 10.9431L2.59528 11.4897C2.63456 11.5197 2.65474 11.5684 2.64816 11.6174L3.32952 11.709L4.01088 11.8007C4.08333 11.2621 3.8613 10.7261 3.42924 10.3965L3.01226 10.9431ZM1.81067 10.6998L1.74227 11.3839C2.09241 11.4189 2.31437 11.4416 2.47399 11.4704C2.64018 11.5003 2.63681 11.5214 2.59528 11.4897L3.01226 10.9431L3.42924 10.3965C3.20193 10.2231 2.93637 10.1565 2.71751 10.1171C2.49209 10.0765 2.20615 10.0484 1.87908 10.0157L1.81067 10.6998ZM1.13433 10.5741L0.819198 11.1851C0.97784 11.2669 1.13534 11.3048 1.27688 11.3286C1.41166 11.3512 1.57247 11.3669 1.74227 11.3839L1.81067 10.6998L1.87908 10.0157C1.69111 9.99693 1.58359 9.98582 1.50457 9.97255C1.4323 9.96042 1.43051 9.95331 1.44947 9.96309L1.13433 10.5741ZM0.745287 10.1442L0.105942 10.397C0.240508 10.7373 0.493921 11.0174 0.819196 11.1851L1.13433 10.5741L1.44947 9.96309C1.4199 9.94784 1.39686 9.92238 1.38463 9.89144L0.745287 10.1442ZM0.6875 9.45872H0C0 9.62937 -0.000355554 9.79094 0.00875146 9.92731C0.0183153 10.0705 0.040313 10.231 0.105943 10.397L0.745287 10.1442L1.38463 9.89144C1.39247 9.91128 1.38558 9.90879 1.3807 9.83568C1.37536 9.75573 1.375 9.64763 1.375 9.45872H0.6875ZM0.6875 8.41637H0V9.45872H0.6875H1.375V8.41637H0.6875ZM0.745315 7.73071L0.105995 7.47788C0.040333 7.64391 0.0183243 7.80444 0.00875574 7.94767C-0.000355729 8.08407 0 8.24568 0 8.41637H0.6875H1.375C1.375 8.22742 1.37536 8.1193 1.3807 8.03932C1.38558 7.96619 1.39248 7.96371 1.38464 7.98355L0.745315 7.73071ZM1.13427 7.30093L0.819072 6.68994C0.493897 6.85769 0.240555 7.13763 0.105994 7.47788L0.745315 7.73071L1.38464 7.98355C1.39687 7.95262 1.4199 7.92717 1.44946 7.91192L1.13427 7.30093ZM1.81076 7.17517L1.74235 6.49109C1.57251 6.50807 1.41167 6.5238 1.27686 6.54644C1.13528 6.57021 0.977747 6.60808 0.819073 6.68994L1.13427 7.30093L1.44946 7.91192C1.4305 7.9217 1.43229 7.91459 1.50457 7.90245C1.58361 7.88918 1.69116 7.87806 1.87917 7.85926L1.81076 7.17517ZM1.81077 7.17517V6.48767H1.81076V7.17517V7.86267H1.81077V7.17517ZM3.01264 6.93178L2.59558 6.38523C2.63711 6.35354 2.64049 6.3747 2.47426 6.40462C2.31461 6.43335 2.09259 6.45606 1.74236 6.49109L1.81077 7.17517L1.87918 7.85926C2.20632 7.82655 2.49233 7.79846 2.71781 7.75788C2.93673 7.71848 3.20235 7.65181 3.42969 7.47834L3.01264 6.93178ZM3.32982 6.16604L2.64845 6.2576C2.65502 6.30655 2.63485 6.35527 2.59558 6.38523L3.01264 6.93178L3.42969 7.47834C3.86159 7.14878 4.08356 6.6129 4.0112 6.07447L3.32982 6.16604ZM2.65202 5.14401L2.11992 5.57936C2.34282 5.8518 2.48377 6.02487 2.57636 6.1581C2.67276 6.29681 2.65541 6.30939 2.64845 6.2576L3.32982 6.16604L4.0112 6.07447C3.97311 5.79104 3.83241 5.55606 3.70547 5.37341C3.57472 5.18526 3.39233 4.96314 3.18411 4.70866L2.65202 5.14401ZM2.65201 5.14401L2.11298 5.57074L2.11298 5.57074L2.65202 5.14401L3.19105 4.71728L3.19105 4.71728L2.65201 5.14401ZM2.26249 4.5766L1.60757 4.78571C1.66189 4.95583 1.74652 5.09404 1.82983 5.21098C1.90917 5.32234 2.0118 5.44722 2.11992 5.57936L2.65201 5.14401L3.18411 4.70866C3.06443 4.56238 2.99622 4.47845 2.9497 4.41315C2.90716 4.35344 2.91092 4.34715 2.91742 4.36748L2.26249 4.5766ZM2.29136 3.99776L1.6605 3.72451C1.5151 4.06021 1.49629 4.43722 1.60757 4.78571L2.26249 4.5766L2.91742 4.36748C2.9073 4.3358 2.90901 4.30152 2.92223 4.27101L2.29136 3.99776ZM2.73538 3.47195L2.24925 2.98581C2.12853 3.10653 2.01398 3.22057 1.92396 3.32348C1.82943 3.43155 1.73147 3.56065 1.6605 3.72451L2.29136 3.99776L2.92223 4.27101C2.91375 4.29059 2.91062 4.28395 2.95889 4.22878C3.01167 4.16844 3.08788 4.09172 3.22152 3.95809L2.73538 3.47195ZM3.47235 2.73499L2.98621 2.24885L2.24925 2.98581L2.73538 3.47195L3.22152 3.95809L3.95848 3.22112L3.47235 2.73499ZM3.47235 2.73498L2.98621 2.24885L2.98621 2.24885L3.47235 2.73499L3.95848 3.22112L3.95848 3.22112L3.47235 2.73498ZM3.99801 2.29107L3.72471 1.66023C3.56089 1.7312 3.43183 1.82914 3.32379 1.92365C3.22091 2.01364 3.1069 2.12816 2.98621 2.24885L3.47235 2.73498L3.95848 3.22112C4.09208 3.08752 4.16878 3.01133 4.2291 2.95856C4.28426 2.91031 4.2909 2.91343 4.27132 2.92191L3.99801 2.29107ZM4.577 2.26219L4.78618 1.60728C4.4376 1.49595 4.06048 1.51476 3.72471 1.66023L3.99801 2.29107L4.27132 2.92191C4.30184 2.90868 4.33613 2.90697 4.36782 2.91709L4.577 2.26219ZM5.1443 2.65166L5.57965 2.11956C5.44753 2.01147 5.32267 1.90885 5.21134 1.82953C5.09442 1.74623 4.95625 1.66161 4.78618 1.60728L4.577 2.26219L4.36782 2.91709C4.34748 2.9106 4.35378 2.90683 4.41349 2.94937C4.47878 2.99589 4.5627 3.06409 4.70895 3.18375L5.1443 2.65166ZM6.16593 3.32928L6.25767 2.64793C6.30944 2.6549 6.29686 2.67223 6.15819 2.57585C6.025 2.48329 5.85199 2.34239 5.57965 2.11956L5.1443 2.65166L4.70895 3.18375C4.96334 3.3919 5.18538 3.57422 5.37345 3.70493C5.55602 3.83182 5.7909 3.97249 6.07419 4.01063L6.16593 3.32928ZM6.932 3.01196L6.38535 2.59504C6.35538 2.63433 6.30664 2.65452 6.25767 2.64793L6.16593 3.32928L6.07419 4.01063C6.61287 4.08316 7.14904 3.86107 7.47866 3.42888L6.932 3.01196ZM7.17523 1.8106L6.49115 1.74219C6.45614 2.09226 6.43344 2.31418 6.40472 2.47377C6.37482 2.63993 6.35368 2.63656 6.38535 2.59504L6.932 3.01196L7.47866 3.42888C7.652 3.2016 7.71862 2.93609 7.75799 2.71728C7.79854 2.49189 7.82662 2.20601 7.85932 1.87901L7.17523 1.8106ZM7.17523 1.8106H6.48773V1.8106H7.17523H7.86273V1.8106H7.17523ZM7.30091 1.13439L6.68987 0.819298C6.60807 0.977915 6.57023 1.13538 6.54647 1.2769C6.52384 1.41165 6.50812 1.57242 6.49115 1.74219L7.17523 1.8106L7.85932 1.87901C7.87812 1.69107 7.88922 1.58358 7.90249 1.50457C7.91462 1.43232 7.92173 1.43053 7.91195 1.44948L7.30091 1.13439ZM7.73089 0.745266L7.47816 0.105903C7.13772 0.240472 6.85764 0.493941 6.68987 0.819299L7.30091 1.13439L7.91195 1.44948C7.9272 1.41991 7.95267 1.39686 7.98361 1.38463L7.73089 0.745266ZM8.41625 0.687502V1.90735e-06C8.24563 1.90735e-06 8.08409 -0.000353507 7.94776 0.00874996C7.80458 0.0183101 7.64413 0.040299 7.47816 0.105903L7.73089 0.745266L7.98361 1.38463C7.96378 1.39247 7.96627 1.38558 8.03936 1.38069C8.1193 1.37536 8.22738 1.375 8.41625 1.375V0.687502ZM9.45878 0.687502V1.90735e-06H8.41625V0.687502V1.375H9.45878V0.687502ZM10.1443 0.745287L10.397 0.10594C10.231 0.0403134 10.0705 0.0183166 9.92735 0.00875303C9.79099 -0.000353634 9.62942 1.90735e-06 9.45878 1.90735e-06V0.687502V1.375C9.64768 1.375 9.75577 1.37536 9.83572 1.3807C9.90884 1.38558 9.91132 1.39248 9.89148 1.38463L10.1443 0.745287ZM10.5742 1.13434L11.1852 0.81921C11.0174 0.493924 10.7374 0.240505 10.397 0.10594L10.1443 0.745287L9.89148 1.38463C9.92243 1.39687 9.94788 1.4199 9.96313 1.44947L10.5742 1.13434ZM12.2375 8.9375H11.55C11.55 10.3803 10.3804 11.55 8.93752 11.55V12.2375V12.925C11.1398 12.925 12.925 11.1397 12.925 8.9375H12.2375ZM8.93752 5.6375V6.325C10.3804 6.325 11.55 7.49466 11.55 8.9375H12.2375H12.925C12.925 6.73527 11.1398 4.95 8.93752 4.95V5.6375ZM5.63752 8.9375H6.32502C6.32502 7.49466 7.49468 6.325 8.93752 6.325V5.6375V4.95C6.73529 4.95 4.95002 6.73527 4.95002 8.9375H5.63752ZM8.93752 12.2375V11.55C7.49468 11.55 6.32502 10.3803 6.32502 8.9375H5.63752H4.95002C4.95002 11.1397 6.73529 12.925 8.93752 12.925V12.2375Z"
    fill="rgb(var(--color-main-text))"
    style="fill:rgb(var(--color-main-text));fill:color(display-p3 0.9526 0.9605 1.0000);fill-opacity:1;" />
</svg>
