<svg viewBox="0 0 18 18" fill="none" xmlns="http://www.w3.org/2000/svg">
<path d="M7.12345 3.61304C7.8445 1.81546 8.20503 0.916666 8.825 0.916666C9.44496 0.916666 9.80549 1.81546 10.5265 3.61304L10.5601 3.69675C10.9675 4.71229 11.1712 5.22006 11.5863 5.5287C12.0014 5.83733 12.5463 5.88613 13.6361 5.98373L13.8332 6.00138C15.6168 6.16112 16.5087 6.24099 16.6995 6.80839C16.8903 7.37579 16.228 7.97836 14.9034 9.18349L14.4613 9.5857C13.7908 10.1958 13.4555 10.5008 13.2992 10.9006C13.2701 10.9751 13.2458 11.0515 13.2267 11.1293C13.1239 11.5461 13.2221 11.9886 13.4185 12.8736L13.4796 13.1491C13.8405 14.7755 14.0209 15.5888 13.7059 15.9395C13.5881 16.0706 13.4351 16.165 13.2652 16.2114C12.8103 16.3355 12.1646 15.8093 10.873 14.7569C10.0249 14.0658 9.60091 13.7203 9.11406 13.6425C8.92256 13.612 8.72743 13.612 8.53593 13.6425C8.04909 13.7203 7.62505 14.0658 6.77697 14.7569C5.48544 15.8093 4.83967 16.3355 4.38481 16.2114C4.21485 16.165 4.06185 16.0706 3.94413 15.9395C3.62909 15.5888 3.80952 14.7755 4.17039 13.1491L4.23151 12.8736C4.42787 11.9886 4.52605 11.5461 4.42333 11.1293C4.40417 11.0515 4.37993 10.9751 4.35078 10.9006C4.19452 10.5008 3.85924 10.1958 3.18869 9.5857L2.7466 9.18349C1.42198 7.97836 0.759668 7.37579 0.950499 6.80839C1.14133 6.24099 2.03316 6.16112 3.81682 6.00138L4.01385 5.98373C5.10369 5.88613 5.64861 5.83733 6.06372 5.5287C6.47883 5.22006 6.68251 4.71229 7.08987 3.69674L7.12345 3.61304Z" stroke="rgb(var(--color-main-text))" style="stroke:rgb(var(--color-main-text));stroke:color(display-p3 0.9526 0.9605 1.0000);stroke-opacity:1;" stroke-width="1.83333"/>
</svg>
