<svg viewBox="0 0 16 16" fill="none" xmlns="http://www.w3.org/2000/svg">
<path d="M8.00001 14.6667C8.26022 14.6667 8.47178 14.4551 8.47178 14.1949V13.3855C11.0776 13.1592 13.1593 11.0776 13.3855 8.47178H14.1949C14.4551 8.47178 14.6667 8.26022 14.6667 8.00001C14.6667 7.7398 14.4551 7.52824 14.1949 7.52824H13.3855C13.1592 4.92238 11.0776 2.84076 8.47178 2.6145V1.80511C8.47178 1.5449 8.26022 1.33334 8.00001 1.33334C7.7398 1.33334 7.52824 1.5449 7.52824 1.80511V2.6145C4.92238 2.84079 2.84076 4.92238 2.6145 7.52824H1.80511C1.5449 7.52824 1.33334 7.7398 1.33334 8.00001C1.33334 8.26022 1.5449 8.47178 1.80511 8.47178H2.6145C2.84079 11.0776 4.92238 13.1593 7.52824 13.3855V14.1949C7.52824 14.4551 7.7398 14.6667 8.00001 14.6667ZM3.53746 8.00003C3.53746 5.53948 5.53946 3.53748 8.00001 3.53748C10.4606 3.53748 12.4612 5.53815 12.4626 7.99644V8.00234V8.00824C12.4603 10.4673 10.4583 12.4672 8.00001 12.4672C5.54097 12.4672 3.53746 10.4652 3.53746 8.00465V8.00003Z" fill="rgb(var(--color-green))" style="fill:rgb(var(--color-green));fill:color(display-p3 0.2095 0.8250 0.5033);fill-opacity:1;"/>
<path d="M10.3565 8.00004C10.3565 6.69973 9.29946 5.64346 7.99995 5.64346C6.69964 5.64346 5.64337 6.70053 5.64337 8.00004C5.64337 9.30034 6.70043 10.3566 7.99995 10.3566C9.30025 10.3566 10.3565 9.29955 10.3565 8.00004ZM6.58672 8.00004C6.58672 7.22089 7.22066 6.58694 7.99981 6.58694C8.77897 6.58694 9.41291 7.22089 9.41291 8.00004C9.41291 8.77919 8.77897 9.41313 7.99981 9.41313C7.22066 9.41313 6.58672 8.77919 6.58672 8.00004Z" fill="rgb(var(--color-green))" style="fill:rgb(var(--color-green));fill:color(display-p3 0.2095 0.8250 0.5033);fill-opacity:1;"/>
</svg>
