<svg viewBox="0 0 11 10" fill="none" xmlns="http://www.w3.org/2000/svg">
<path d="M2.69948 5.44023L0.219831 4.6078C0.219831 4.6078 -0.076097 4.48412 0.0187432 4.20272C0.0385516 4.14459 0.0781697 4.09573 0.19642 4.01039C0.746253 3.61582 10.3677 0.0529582 10.3677 0.0529582C10.3677 0.0529582 10.6396 -0.0410384 10.7999 0.0214245C10.8731 0.0498729 10.92 0.0826444 10.9596 0.200767C10.974 0.244058 10.9824 0.335589 10.9812 0.426501C10.9806 0.492056 10.9728 0.552661 10.9668 0.64852C10.908 1.62257 9.15462 8.893 9.15462 8.893C9.15462 8.893 9.04957 9.31849 8.67381 9.33271C8.53695 9.33828 8.37008 9.30921 8.1714 9.13296C7.43369 8.47926 4.8838 6.7136 4.32077 6.32522C4.28895 6.30357 4.27995 6.27513 4.27455 6.24729C4.26675 6.20648 4.30996 6.15577 4.30996 6.15577C4.30996 6.15577 8.74944 2.0895 8.86769 1.66339C8.8767 1.63061 8.84248 1.61392 8.79566 1.62814C8.50094 1.74008 3.38917 5.06545 2.82493 5.43281C2.79192 5.45445 2.69948 5.44023 2.69948 5.44023Z" fill="rgb(var(--color-main-text))" style="fill:rgb(var(--color-main-text));fill:color(display-p3 0.9526 0.9605 1.0000);fill-opacity:1;"/>
</svg>
