<svg viewBox="0 0 19 17" fill="none" xmlns="http://www.w3.org/2000/svg">
<path d="M13.4474 0H4.88593C2.19116 0 0 2.09776 0 4.67725V11.8227C0 14.4024 2.19135 16.5 4.88593 16.5H13.4474C16.1422 16.5 18.3333 14.4022 18.3333 11.8227V4.67725C18.3333 2.09758 16.142 0 13.4474 0ZM16.8784 10.4077L11.5326 10.3352C10.9419 10.3269 10.3861 10.1012 9.97283 9.69729C9.55668 9.29336 9.32971 8.75849 9.32971 8.19298C9.32971 7.62746 9.56542 7.07588 9.99611 6.66915C10.4268 6.26242 11.003 6.04514 11.5996 6.0535L16.8842 6.12593V10.4104L16.8784 10.4077ZM16.8784 4.7302L11.617 4.66056C10.6247 4.64663 9.68173 5.00878 8.97176 5.67737C8.2618 6.34595 7.87177 7.24018 7.87177 8.19285C7.87177 9.14553 8.25007 10.0064 8.93394 10.6722C9.61781 11.3379 10.5345 11.714 11.5123 11.728L16.8814 11.8004V11.8227C16.8814 13.6334 15.3419 15.1071 13.4504 15.1071H4.88889C2.9974 15.1071 1.4579 13.6335 1.4579 11.8227V4.67719C1.4579 2.86648 2.99732 1.39273 4.88889 1.39273H13.4504C15.3419 1.39273 16.8814 2.86641 16.8814 4.67719V4.73012L16.8784 4.7302Z" fill="rgb(var(--color-main-text))" style="fill:rgb(var(--color-main-text));fill:color(display-p3 0.9526 0.9605 1.0000);fill-opacity:1;"/>
<path d="M12.4901 8.25146C12.4901 9.17982 11.0351 9.17982 11.0351 8.25146C11.0351 7.32311 12.4901 7.32311 12.4901 8.25146Z" fill="rgb(var(--color-main-text))" style="fill:rgb(var(--color-main-text));fill:color(display-p3 0.9526 0.9605 1.0000);fill-opacity:1;"/>
</svg>
