<svg viewBox="0 0 11 14" fill="none" xmlns="http://www.w3.org/2000/svg">
<path d="M5.37964 0.676048L5.47632 0.697533L5.56909 0.730736C5.77402 0.818374 5.90189 0.9771 5.97241 1.11941C6.04256 1.261 6.06766 1.40592 6.07983 1.50417C6.10422 1.70114 6.1023 1.96302 6.10229 2.2239V4.75222H7.68823C8.19908 4.75222 8.65942 4.75098 9.0105 4.803C9.3204 4.84894 9.70308 4.9577 9.96069 5.2864L10.0632 5.4407L10.1394 5.60964C10.2805 6.00282 10.1689 6.38534 10.0427 6.67214C9.89979 6.99694 9.65351 7.3854 9.38159 7.81765L6.73901 12.0178C6.60001 12.2388 6.46129 12.4617 6.33569 12.6155C6.27306 12.6922 6.17454 12.8016 6.03979 12.8841C5.88503 12.9787 5.6558 13.0515 5.39624 12.9768C5.13626 12.9019 4.97979 12.7176 4.89917 12.555C4.82907 12.4134 4.80489 12.2684 4.79272 12.1702C4.76833 11.9732 4.76929 11.7114 4.76929 11.4505V8.92214H3.18335C2.6725 8.92214 2.21216 8.92338 1.86108 8.87136C1.50709 8.81885 1.05831 8.68412 0.809326 8.23367C0.560266 7.78274 0.684691 7.32993 0.828857 7.00222C0.971786 6.6774 1.21804 6.28901 1.48999 5.85671L4.13354 1.65652C4.27253 1.43558 4.4103 1.21266 4.53589 1.05886C4.59852 0.982166 4.69699 0.872804 4.83179 0.790306C4.96718 0.707477 5.15971 0.641233 5.37964 0.676048Z" stroke="rgb(var(--color-purpure))" style="stroke:rgb(var(--color-purpure));stroke:color(display-p3 0.6914 0.4352 0.9653);stroke-opacity:1;" stroke-width="1.33333"/>
</svg>
